<svg id="Layer_1" data-name="Layer 1" xmlns="http://www.w3.org/2000/svg" viewBox="0 0 38.55 43.37"><defs><style>.cls-1,.cls-2{fill:none;stroke:#00afaa;stroke-width:0.8px;}.cls-1{stroke-linecap:round;stroke-linejoin:round;}.cls-2{stroke-miterlimit:10;}</style></defs><path class="cls-1" d="M27.4,23.78c-1.11-5.79-3-11.41-7.95-14.09V7.47l3.88-5H10.45l3.89,5V9.69C6.21,14.13,5.07,32.1,5,32.87l0,2.47H18.9"/><line class="cls-1" x1="14.34" y1="7.39" x2="19.45" y2="7.39"/><line class="cls-1" x1="14.34" y1="9.67" x2="19.45" y2="9.67"/><line class="cls-1" x1="23.9" y1="33.1" x2="33.57" y2="33.1"/><path class="cls-1" d="M28.52,23.71a9.63,9.63,0,1,1-9.63,9.63,9.63,9.63,0,0,1,9.63-9.63Z"/><path class="cls-2" d="M14.61,27.26V17.09h3.77a3.19,3.19,0,0,1,2.24.8,3.09,3.09,0,0,1,0,4.28,3.24,3.24,0,0,1-2.24.81H12.93m6.14,1.58H12.93m1.68,2.81,0-2.2"/></svg>