<svg id="Layer_1" data-name="Layer 1" xmlns="http://www.w3.org/2000/svg" viewBox="0 0 148.12 61.27"><defs><style>.cls-1{fill:#00afaa;}.cls-2{fill:#00539b;}.cls-3{fill:#f39a00;}</style></defs><path class="cls-1" d="M0,19.26H14.59A74.59,74.59,0,0,0,42,46.68V61.27A67.37,67.37,0,0,1,0,19.26Z"/><path class="cls-2" d="M42,19.26V46.68A74.59,74.59,0,0,1,14.59,19.26Z"/><path class="cls-1" d="M42,19.26H14.59A73.71,73.71,0,0,1,6.89,0H22.76A19.25,19.25,0,0,1,42,19.26Z"/><path class="cls-3" d="M61.27,38.52V54.38A73.36,73.36,0,0,1,42,46.68V19.26A19.26,19.26,0,0,1,61.27,38.52Z"/><path class="cls-1" d="M41.86,0A25.55,25.55,0,0,0,61.27,19.41V0Z"/><path class="cls-2" d="M93.27,23.78v19.6h-6V23.78H80.93v-4.6H99.62v4.6Zm37.55-2.39a11.69,11.69,0,0,1,7.08-2.58c6.91,0,10.22,4.88,10.22,11.87,0,8.84-5,13.35-12.15,13.35s-11-4.51-11-14.91c0-8.65,2-14.54,5-17.4,2.11-2.11,4.51-3.13,8.56-4.14,2.48-.64,4.88-1,5.8-1.38l2.21,5c-1.2.74-3.41,1.2-7.83,2.12-5.06,1-7.36,2.76-7.91,8.1Zm5.52,17.76c4,0,5.43-3.22,5.43-7.82,0-4.14-1.2-7.55-5.25-7.55a7.58,7.58,0,0,0-5.06,1.56,39.1,39.1,0,0,0-.18,5.62c0,5,1.56,8.19,5.06,8.19ZM117,43.38l-8.1-11.32V43.38h-6.07V19.18h6.07V29.76l7.18-10.58h6.63l-7.83,11,9.21,13.25Z"/></svg>