<svg id="Layer_1" data-name="Layer 1" xmlns="http://www.w3.org/2000/svg" viewBox="0 0 97.18 55.03"><defs><style>.cls-1{fill:none;stroke:#00afaa;stroke-linecap:round;stroke-linejoin:round;stroke-width:1.18px;}</style></defs><polyline class="cls-1" points="39.81 45.33 48.62 36.52 39.81 27.72"/><path class="cls-1" d="M96.53,9.33V49.78a4.67,4.67,0,0,1-4.66,4.65H65.06a4.67,4.67,0,0,1-4.66-4.65V5.25A4.68,4.68,0,0,1,65.06.59H91.87c2,0,4.84.67,4.71,4.57l0,4.17"/><line class="cls-1" x1="75.54" y1="48.31" x2="81.4" y2="48.31"/><line class="cls-1" x1="61.17" y1="42.74" x2="95.49" y2="42.74"/><line class="cls-1" x1="61.76" y1="7.43" x2="96.08" y2="7.43"/><path class="cls-1" d="M8,48.47V3.59H24.66a14.15,14.15,0,0,1,9.89,3.5,12.54,12.54,0,0,1,3.78,9.45A12.61,12.61,0,0,1,34.55,26a14.13,14.13,0,0,1-9.89,3.54H.59m46.8,7H34.92m-15.46,0H.59m26.68,0H23.83M8,48.93m0-9.7"/></svg>