<svg id="Layer_1" data-name="Layer 1" xmlns="http://www.w3.org/2000/svg" viewBox="0 0 38.55 40"><defs><style>.cls-1{fill:none;stroke:#00afaa;stroke-linecap:round;stroke-linejoin:round;stroke-width:0.8px;}</style></defs><path class="cls-1" d="M19.1,27.27l4.78-2.55c1.12-.59,3.31-1.5,3.33.74l.8-.55c2.27-1.55,4-.45,3.14,1.69,4-2.93,5.45.78,3.66,1.69L25.9,33.91,22.13,36.3C19.46,38,15.93,38,14.94,37.42,9.31,36,7.68,34.58,2.77,35.21"/><path class="cls-1" d="M.4,25.19l5.82-2.37a4.56,4.56,0,0,1,3.78,0l3.16,2.34c4.38,3.25,4.73,2.44,9.89,2.74,1.14.07,1.89,1.91,0,2.64-4.82,2.2-7.79,1.22-12.18-1"/><path class="cls-1" d="M18,2.26a9.4,9.4,0,1,1-9.4,9.4A9.4,9.4,0,0,1,18,2.26Z"/><path class="cls-1" d="M14.07,12.36H19c2.23,0,3.77-.94,3.77-3.14S21.23,6,19,6H15.87V17.85m-1.8-5.49,1.8,5.49"/><line class="cls-1" x1="18.52" y1="15.51" x2="14.07" y2="15.51"/></svg>