<svg id="Layer_1" data-name="Layer 1" xmlns="http://www.w3.org/2000/svg" viewBox="0 0 38.55 30.42"><defs><style>.cls-1{fill:none;stroke:#00afaa;stroke-linecap:round;stroke-linejoin:round;stroke-width:0.8px;}</style></defs><path class="cls-1" d="M12.85,29.75a14.92,14.92,0,1,1,18.7-14.43"/><line class="cls-1" x1="25.16" y1="7.12" x2="17.99" y2="14.3"/><line class="cls-1" x1="15.2" y1="14.69" x2="9.65" y2="11.48"/><path class="cls-1" d="M16.63,13.63a1.69,1.69,0,1,0,0,3.37,1.69,1.69,0,0,0,0-3.37Z"/><line class="cls-1" x1="16.63" y1="3.99" x2="16.63" y2="5.03"/><polyline class="cls-1" points="34.43 11.39 31.87 16.78 28.17 12.1"/><path class="cls-1" d="M31.83,14.87c0,.33,0,.67,0,1"/><path class="cls-1" d="M31.41,19a15,15,0,0,1-12.53,11.3c-.51.07-1,.12-1.52.14"/><path class="cls-1" d="M15.8,30.4l-1-.1"/></svg>