<svg id="Layer_1" data-name="Layer 1" xmlns="http://www.w3.org/2000/svg" viewBox="0 0 37.93 35.19"><defs><style>.cls-1{fill:none;stroke:#00b1ab;stroke-linecap:round;stroke-linejoin:round;stroke-width:1.44px;}.cls-2{fill:#00b1ab;}</style></defs><path class="cls-1" d="M8.48,16V7.79a7.37,7.37,0,0,1,0-.94V.72H25.17l12,11.6V34.47H8.48V29.79"/><polyline class="cls-1" points="24.84 1.29 24.84 12.3 37.21 12.3"/><line class="cls-1" x1="13.12" y1="7.91" x2="19.74" y2="7.91"/><line class="cls-1" x1="13.12" y1="11.54" x2="19.74" y2="11.54"/><rect class="cls-1" x="0.72" y="16.6" width="29.77" height="12.38"/><path class="cls-2" d="M9.37,26.61H7.77V18.92h3.52a2.23,2.23,0,0,1,2.37,2.46,2.35,2.35,0,0,1-2.45,2.45H9.37Zm0-4.1h1.49a1.07,1.07,0,0,0,1.2-1.2c0-.75-.41-1.07-1.41-1.07H9.37Z"/><path class="cls-2" d="M14.88,18.92h3.39c2.59,0,3.13,2.2,3.13,3.67,0,1.64-.66,4-3.2,4H14.88Zm1.57,6.37H18c1.31,0,1.75-1.33,1.75-2.59,0-2.26-1.08-2.46-1.77-2.46H16.45Z"/><path class="cls-2" d="M28.1,18.92v1.32H24.22v1.59h3.39v1.33H24.22v3.45h-1.6V18.92Z"/></svg>