<svg id="Layer_1" data-name="Layer 1" xmlns="http://www.w3.org/2000/svg" viewBox="0 0 63.94 60.26"><defs><style>.cls-1{fill:none;stroke:#00afaa;stroke-linecap:round;stroke-linejoin:round;stroke-width:1.18px;}</style></defs><path class="cls-1" d="M33.24,44.14H5.53A5,5,0,0,1,.59,39.2V5.53A5,5,0,0,1,5.53.59H58.41a5,5,0,0,1,4.94,4.94V39.2a5,5,0,0,1-4.94,4.94H56.16"/><line class="cls-1" x1="7.56" y1="36.56" x2="13.15" y2="36.56"/><line class="cls-1" x1="19.94" y1="36.56" x2="26.89" y2="36.56"/><polygon class="cls-1" points="63.35 10.95 63.35 18.99 0.59 18.99 0.59 10.95 63.35 10.95 63.35 10.95"/><path class="cls-1" d="M35.67,38.18h18.6A1.71,1.71,0,0,1,56,39.88V54a5.72,5.72,0,0,1-5.7,5.7H39.66A5.72,5.72,0,0,1,34,54V39.88a1.71,1.71,0,0,1,1.71-1.7Z"/><path class="cls-1" d="M37.65,37.89V32.66a6.17,6.17,0,0,1,6.15-6.15h2.35a6.17,6.17,0,0,1,6.15,6.15v5.23"/><path class="cls-1" d="M45,45.05a1.56,1.56,0,1,1-1.56,1.56A1.56,1.56,0,0,1,45,45.05Z"/><line class="cls-1" x1="44.97" y1="52.62" x2="44.97" y2="47.04"/></svg>