<svg id="Layer_1" data-name="Layer 1" xmlns="http://www.w3.org/2000/svg" viewBox="0 0 57.2 57.88"><defs><style>.cls-1{fill:none;stroke:#00afaa;stroke-linecap:round;stroke-linejoin:round;}</style></defs><path class="cls-1" d="M6.48.5H50.72a6,6,0,0,1,6,6V36.83a6,6,0,0,1-6,6H36.06L28.6,57.38,21.14,42.81H6.48a6,6,0,0,1-6-6V6.48a6,6,0,0,1,6-6Z"/><polyline class="cls-1" points="19.6 15.97 19.6 34.83 37.85 34.83 37.85 23.59"/><polygon class="cls-1" points="25.35 22.03 32.09 22.03 32.09 28.77 25.35 28.77 25.35 22.03 25.35 22.03"/><polyline class="cls-1" points="14.81 20.56 14.93 20.45 14.81 20.32 28.48 8.11 28.6 8.22 28.72 8.11 42.39 20.32 42.27 20.45 42.39 20.56"/></svg>